# xmcd CD database file
#
# Track frame offsets:
#	150
#	21647
#	42222
#	56126
#	66870
#	89880
#	112052
#	146676
#	166403
#
# Disc length: 2440 seconds
#
# Revision: 0
# Processed by: cddbd v1.4PL0 Copyright (c) Steve Scherf et al.
# Submitted via: CDex 1.50Beta7
#
DISCID=8c098609
DTITLE=Lee Konitz - Cesarius Alvim - Guarana
DYEAR=1900
DGENRE=Jazz
TTITLE0=Xouni
TTITLE1=Emeraude
TTITLE2=Mr Lee 
TTITLE3=Baião
TTITLE4=Flowers
TTITLE5=Guarana (part 1)
TTITLE6=Guarana (part 2)
TTITLE7=Valsando
TTITLE8=Peace
EXTD=
EXTT0=
EXTT1=
EXTT2=
EXTT3=
EXTT4=
EXTT5=
EXTT6=
EXTT7=
EXTT8=
PLAYORDER=
